<svg xmlns="http://www.w3.org/2000/svg" viewBox="0 0 1452.85 1655.9"><defs><style>.cls-1{stroke:#000;stroke-miterlimit:10;}.cls-2{font-size:865.84px;font-family:Blenny-Black, Blenny;font-weight:800;letter-spacing:-0.1em;}</style></defs><g id="Layer_2" data-name="Layer 2"><g id="Layer_1-2" data-name="Layer 1"><path class="cls-1" d="M1012.15,923l-24.59,29.7L922,917.88l-73.74,35.85,1-83L837,832.87l38.92-17.41s-89.11-76.82-227.38-17.41c0,0-235.58,145.44-106.53,382,0,0,163.89,248.9,420,52.24C962,1232.33,1105.35,1123.76,1012.15,923ZM769.4,1147.32a106.53,106.53,0,1,1,106.52-106.53A106.52,106.52,0,0,1,769.4,1147.32Z"/><path class="cls-1" d="M891.29,798V910.71l69.07-29.15,67.15,29.15,24.59-8.19S1043.56,814.24,927.48,757l5.19,21.89Z"/><polygon class="cls-1" points="805.25 999.82 815.49 988.55 815.49 983.43 810.37 983.43 800.13 994.7 790.91 986.5 784.76 985.48 784.76 991.63 793.98 999.82 784.76 1010.06 784.76 1015.18 790.91 1015.18 800.13 1005.97 809.35 1015.18 815.49 1012.11 805.25 999.82"/><polygon class="cls-1" points="735.6 1002.89 746.87 989.58 746.87 983.43 740.72 983.43 731.5 993.67 721.26 983.43 713.07 983.43 713.07 989.58 724.33 999.82 716.14 1010.06 716.14 1015.18 722.29 1015.18 729.46 1005.97 741.75 1015.18 746.87 1015.18 746.87 1005.97 735.6 1002.89"/><path d="M694.12,1061.79l-11.27,4.1s-5.12,7.17,3.07,8.19c0,0,37.9-24.58,105.5-15.36v27.65s8.19,31.76,37.9,16.39c0,0,11.26-5.12,13.31-15.36v-21.51l8.2,5.12,5.12-3.07S812.93,1029,694.12,1061.79Zm140.32,23.56-8.2,10.24c-17.41,14.34-29.7-10.24-29.7-10.24v-27.66c2.05-1,14.34,0,14.34,0l1,28.68,3.07,2.05,4.1-2.05-1-26.63,17.41,6.15Z"/><text class="cls-2" transform="translate(0 720.8)">404</text><path d="M613.6,1054v418s3,18,16,7l-8-421Z"/><path d="M654.6,983.63v418s3,18,16,7l-8-421Z"/></g></g></svg>