<svg xmlns="http://www.w3.org/2000/svg" viewBox="0 0 1159 817.63"><defs><style>.cls-1,.cls-7,.cls-8{fill:#fff;}.cls-1,.cls-6,.cls-7,.cls-8{stroke:#000;stroke-miterlimit:10;}.cls-1{stroke-width:0.25px;}.cls-2,.cls-7{font-size:25.78px;letter-spacing:-0.07em;}.cls-2,.cls-3,.cls-7,.cls-8{font-family:Blenny-Black, Blenny;font-weight:800;}.cls-3,.cls-8{font-size:12.89px;letter-spacing:-0.07em;}.cls-4{letter-spacing:-0.13em;}.cls-5{letter-spacing:-0.08em;}.cls-6{fill:none;}.cls-9{font-size:24px;}.cls-11,.cls-12,.cls-9{font-family:HeroNew-Bold, Hero New;font-weight:700;}.cls-12,.cls-9{letter-spacing:-0.07em;}.cls-10{letter-spacing:-0.09em;}.cls-11,.cls-12{font-size:48px;}.cls-11{letter-spacing:-0.08em;}.cls-13{fill:#050400;}.cls-13,.cls-14,.cls-15{fill-rule:evenodd;}.cls-14{fill:#070600;}.cls-15{fill:#050502;}</style></defs><g id="Layer_2" data-name="Layer 2"><g id="Layer_1-2" data-name="Layer 1"><rect class="cls-1" x="0.5" y="0.13" width="1158" height="817"/><text class="cls-2" transform="translate(548.75 36.09)">lyrics</text><text class="cls-3" transform="translate(570.79 46.6)">t<tspan class="cls-4" x="4.06" y="0">w</tspan><tspan class="cls-5" x="14.16" y="0">o</tspan></text><text class="cls-2" transform="translate(564.26 66.19)">GO</text><rect class="cls-6" x="0.5" y="714.13" width="1158" height="103"/><text class="cls-7" transform="translate(21 750.91)">lyrics</text><text class="cls-8" transform="translate(43.04 761.41)">t<tspan class="cls-4" x="4.06" y="0">w</tspan><tspan class="cls-5" x="14.16" y="0">o</tspan></text><text class="cls-7" transform="translate(36.51 781)">GO</text><rect class="cls-6" x="171.5" y="104.13" width="841" height="47"/><rect class="cls-6" x="171" y="103.63" width="132" height="48"/><text class="cls-9" transform="translate(200.44 135.49)">sea<tspan class="cls-10" x="38.04" y="0">r</tspan><tspan x="46.01" y="0">ch</tspan></text><rect class="cls-6" x="72" y="227.63" width="430" height="364"/><rect class="cls-6" x="592" y="226.63" width="430" height="364"/><text class="cls-11" transform="translate(171.12 409.77)">album art</text><text class="cls-12" transform="translate(742.73 426.01)">lyrics</text><path id="Path_1" data-name="Path 1" class="cls-13" d="M1129.54,760.2v-8.39h2.87l.41-3.28h-3.28v-2c0-.92.31-1.63,1.64-1.63h1.74v-3c-.41,0-1.43-.1-2.56-.1a3.94,3.94,0,0,0-4.2,3.68,3.11,3.11,0,0,0,0,.61v2.46h-2.87v3.28h2.87v8.39Z"/><path id="Path_2" data-name="Path 2" class="cls-14" d="M1087.68,759a10.65,10.65,0,0,0,10.75-10.55v-.71a8.27,8.27,0,0,0,1.84-1.94,8.51,8.51,0,0,1-2.15.61,4,4,0,0,0,1.64-2,9.07,9.07,0,0,1-2.36.93,3.63,3.63,0,0,0-2.76-1.23,3.85,3.85,0,0,0-3.79,3.79,1.87,1.87,0,0,0,.11.81,10.54,10.54,0,0,1-7.78-4,4,4,0,0,0-.52,1.95,4.1,4.1,0,0,0,1.64,3.17,3.48,3.48,0,0,1-1.74-.51h0a3.73,3.73,0,0,0,3.07,3.68,3.2,3.2,0,0,1-1,.11,1.78,1.78,0,0,1-.72-.11,3.9,3.9,0,0,0,3.59,2.67,7.75,7.75,0,0,1-4.71,1.63,2.86,2.86,0,0,1-.92-.1,9.61,9.61,0,0,0,5.83,1.84"/><g id="Symbol_13_1" data-name="Symbol 13 1"><path id="Path_3" data-name="Path 3" class="cls-15" d="M1049.6,743.41a28.43,28.43,0,0,1,3.69.11,4.72,4.72,0,0,1,1.74.3,3.63,3.63,0,0,1,1.74,1.74,5,5,0,0,1,.31,1.74c0,.92.1,1.23.1,3.69a28.23,28.23,0,0,1-.1,3.68,4.87,4.87,0,0,1-.31,1.74,3.59,3.59,0,0,1-1.74,1.74,4.73,4.73,0,0,1-1.74.31c-.92,0-1.23.1-3.69.1a28.27,28.27,0,0,1-3.68-.1,4.73,4.73,0,0,1-1.74-.31,3.59,3.59,0,0,1-1.74-1.74,4.87,4.87,0,0,1-.31-1.74c0-.92-.1-1.23-.1-3.68a28.43,28.43,0,0,1,.1-3.69,5,5,0,0,1,.31-1.74,3.63,3.63,0,0,1,.72-1,1.74,1.74,0,0,1,1-.72,4.72,4.72,0,0,1,1.74-.3,28.28,28.28,0,0,1,3.68-.11m0-1.63a28.08,28.08,0,0,0-3.78.1,6.18,6.18,0,0,0-2.25.41,4,4,0,0,0-1.64,1,4.08,4.08,0,0,0-1,1.64,4.58,4.58,0,0,0-.4,2.25,65.17,65.17,0,0,0,0,7.57,6,6,0,0,0,.41,2.26,3.92,3.92,0,0,0,1,1.63,4,4,0,0,0,1.64,1,6.4,6.4,0,0,0,2.25.41,71.68,71.68,0,0,0,7.57,0,6.4,6.4,0,0,0,2.25-.41,4.32,4.32,0,0,0,2.67-2.66,6.46,6.46,0,0,0,.41-2.26c0-1,.1-1.33.1-3.78a29.94,29.94,0,0,0-.11-3.79,6,6,0,0,0-.41-2.25,4.25,4.25,0,0,0-2.66-2.66,6.18,6.18,0,0,0-2.25-.41,28.18,28.18,0,0,0-3.79-.1m0,4.5a4.63,4.63,0,0,0-4.7,4.55V751a4.71,4.71,0,1,0,4.7-4.71h0m0,7.78a3,3,0,0,1-3.07-3V751a3,3,0,0,1,3-3.07h.11a3,3,0,0,1,3.08,3V751a3,3,0,0,1-3,3.07h-.12m4.92-9.11a1.13,1.13,0,1,0,1.12,1.13h0a1.13,1.13,0,0,0-1.12-1.13"/></g></g></g></svg>