<svg xmlns="http://www.w3.org/2000/svg" viewBox="0 0 333.5 512.56"><defs><style>.cls-1{fill:#fff;}.cls-1,.cls-5{stroke:#000;stroke-miterlimit:10;}.cls-2{font-size:14px;}.cls-2,.cls-3{font-family:Blenny-Black, Blenny;font-weight:800;letter-spacing:-0.07em;}.cls-3{font-size:7px;}.cls-4{letter-spacing:-0.13em;}.cls-5{fill:none;}.cls-6{font-size:5.15px;letter-spacing:-0.07em;}.cls-6,.cls-8,.cls-9{font-family:HeroNew-Bold, Hero New;font-weight:700;}.cls-7{letter-spacing:-0.09em;}.cls-8{font-size:29.06px;letter-spacing:-0.07em;}.cls-9{font-size:35.55px;letter-spacing:-0.07em;}.cls-10{fill:#050400;}.cls-10,.cls-11,.cls-12{fill-rule:evenodd;}.cls-11{fill:#070600;}.cls-12{fill:#050502;}</style></defs><g id="Layer_2" data-name="Layer 2"><g id="Layer_1-2" data-name="Layer 1"><rect class="cls-1" x="1" y="0.5" width="332" height="507"/><text class="cls-2" transform="translate(150.66 12.75)">lyrics</text><text class="cls-3" transform="translate(162.63 18.46)">t<tspan class="cls-4" x="2.21" y="0">w</tspan><tspan x="7.69" y="0">o</tspan></text><text class="cls-2" transform="translate(159.08 29.1)">GO</text><rect class="cls-5" x="76.5" y="59.33" width="180.5" height="10.09"/><rect class="cls-5" x="76.4" y="59.22" width="28.33" height="10.3"/><text class="cls-6" transform="translate(82.72 66.06)">sea<tspan class="cls-7" x="8.16" y="0">r</tspan><tspan x="9.87" y="0">ch</tspan></text><rect class="cls-5" x="53.5" y="92" width="228" height="164"/><rect class="cls-5" x="53.5" y="285" width="228" height="135"/><rect class="cls-5" x="0.5" y="460" width="332" height="47"/><text class="cls-8" transform="translate(104.43 187.87)">album art</text><text class="cls-9" transform="translate(127.02 363.81)">lyrics</text><text class="cls-2" transform="translate(12.86 481.1)">lyrics</text><text class="cls-3" transform="translate(24.83 486.8)">t<tspan class="cls-4" x="2.21" y="0">w</tspan><tspan x="7.69" y="0">o</tspan></text><text class="cls-2" transform="translate(21.28 497.44)">GO</text><path id="Path_1" data-name="Path 1" class="cls-10" d="M320.86,480.84v-3.79h1.3l.19-1.49h-1.49v-.92c0-.42.14-.74.75-.74h.78v-1.34c-.18,0-.65-.05-1.16-.05a1.79,1.79,0,0,0-1.9,1.66,2.53,2.53,0,0,0,0,.28v1.11H318v1.49h1.3v3.79Z"/><path id="Path_2" data-name="Path 2" class="cls-11" d="M301.93,480.31a4.81,4.81,0,0,0,4.86-4.77v-.32a4.07,4.07,0,0,0,.83-.88,4.14,4.14,0,0,1-1,.28,1.89,1.89,0,0,0,.74-.93,4,4,0,0,1-1.07.42,1.65,1.65,0,0,0-1.25-.56,1.74,1.74,0,0,0-1.71,1.71.9.9,0,0,0,.05.37,4.77,4.77,0,0,1-3.52-1.8,1.77,1.77,0,0,0,.51,2.31,1.48,1.48,0,0,1-.79-.23h0a1.69,1.69,0,0,0,1.39,1.67,1.44,1.44,0,0,1-.46.05,1,1,0,0,1-.33-.05,1.75,1.75,0,0,0,1.62,1.2,3.42,3.42,0,0,1-2.13.74,1.12,1.12,0,0,1-.41,0,4.36,4.36,0,0,0,2.64.83"/><g id="Symbol_13_1" data-name="Symbol 13 1"><path id="Path_3" data-name="Path 3" class="cls-12" d="M284.7,473.25a11.65,11.65,0,0,1,1.67.05,2.06,2.06,0,0,1,.78.13,1.68,1.68,0,0,1,.79.79,2.12,2.12,0,0,1,.14.79c0,.42.05.55.05,1.67a13.15,13.15,0,0,1-.05,1.66,2.12,2.12,0,0,1-.14.79,1.6,1.6,0,0,1-.79.79,2.29,2.29,0,0,1-.78.14c-.42,0-.56,0-1.67,0a13.31,13.31,0,0,1-1.67,0,2.33,2.33,0,0,1-.78-.14,1.6,1.6,0,0,1-.79-.79,2.12,2.12,0,0,1-.14-.79c0-.41-.05-.55-.05-1.66a13.25,13.25,0,0,1,.05-1.67,2.12,2.12,0,0,1,.14-.79,1.65,1.65,0,0,1,.32-.46.83.83,0,0,1,.47-.33,2.1,2.1,0,0,1,.78-.13,11.65,11.65,0,0,1,1.67-.05m0-.74a12.21,12.21,0,0,0-1.71.05,2.71,2.71,0,0,0-1,.18,1.78,1.78,0,0,0-.74.46,2,2,0,0,0-.47.74,2.23,2.23,0,0,0-.18,1,29.44,29.44,0,0,0,0,3.43,2.75,2.75,0,0,0,.19,1,1.85,1.85,0,0,0,.46.74,1.78,1.78,0,0,0,.74.46,2.72,2.72,0,0,0,1,.19,36.57,36.57,0,0,0,3.42,0,2.72,2.72,0,0,0,1-.19,2,2,0,0,0,1.21-1.2,3,3,0,0,0,.18-1c0-.46.05-.6.05-1.71a14.06,14.06,0,0,0-.05-1.72,3,3,0,0,0-.18-1,1.87,1.87,0,0,0-.47-.74,1.78,1.78,0,0,0-.74-.46,2.71,2.71,0,0,0-1-.18,12.21,12.21,0,0,0-1.71-.05m0,2a2.09,2.09,0,0,0-2.13,2.06v.07a2.13,2.13,0,1,0,2.13-2.13h0m0,3.52a1.38,1.38,0,0,1-1.39-1.34v-.05a1.36,1.36,0,0,1,1.34-1.39h.05a1.36,1.36,0,0,1,1.39,1.34v.05a1.38,1.38,0,0,1-1.34,1.39h-.05m2.22-4.13a.51.51,0,0,0-.51.51.51.51,0,0,0,1,0h0a.52.52,0,0,0-.51-.51"/></g></g></g></svg>